:SAMPLES-PER-SECOND 30
:FULLY-SPECIFIED
:DEGREES
369
root  35.5115 32.0911 33.9099 -167.483 37.7946 -176.989
RightUpLeg  -16.4942 -5.07044 5.24492
RightLeg  51.3369 1.1742 1.23748
RightFoot  -1.76596 -0.00579759 0.0013789
RightToes  -55.0613 -0.348537 -0.383503
Spine  10.6589 0.773203 -0.883499
Spine1  20.7481 2.77804 -3.40296
HEad  18.7133 24.2395 -11.7461
LeftShoulder1  0 -2.42657e-020 -4.95415e-022
LeftArm  -41.4921 7.51988 -79.1257
LeftForeArm  59.4368 -15.0494 -2.66978
LeftHand  0.522974 -7.92706 -7.91393
RightShoulder  0 2.42657e-020 1.07489e-018
RightArm  -45.2584 -9.80018 81.3422
RightForeArm  -21.4211 64.9109 22.0361
RightHand  4.3373 17.4818 28.0522
LeftUpLeg  -39.5972 12.0642 -12.4731
LeftLeg  30.9814 8.59286 4.4059
LeftFoot  -2.78143 -0.00896471 -0.36927
LeftToes  14.1393 1.28829e-006 1.15665e-007
370
root  36.5605 31.8716 32.4617 -171.181 36.1142 -178.562
RightUpLeg  -18.4269 -7.57039 2.98219
RightLeg  63.3194 1.88713 3.10921
RightFoot  5.87517 -0.00436701 0.462595
RightToes  -48.9356 -0.293504 -0.35984
Spine  10.6627 -0.111508 -1.41327
Spine1  20.7933 1.00848 -4.45569
HEad  19.2598 26.0007 -11.4077
LeftShoulder1  0 -2.42657e-020 -4.95415e-022
LeftArm  -40.9046 10.0635 -78.3604
LeftForeArm  58.2165 -15.2526 -2.71078
LeftHand  0.484903 -7.74969 -7.52653
RightShoulder  0 2.42657e-020 1.07489e-018
RightArm  -47.6969 -13.6336 81.8234
RightForeArm  -10.134 71.871 32.5469
RightHand  4.19254 17.9895 26.4195
LeftUpLeg  -36.9977 10.008 -12.0863
LeftLeg  37.59 8.84739 5.89764
LeftFoot  -6.94677 -0.0751681 -1.23839
LeftToes  15.2075 1.28829e-006 1.15665e-007
371
root  37.5785 31.5931 30.9732 -174.165 34.6129 -178.525
RightUpLeg  -20.1262 -8.47937 1.82658
RightLeg  73.2769 1.49465 3.79742
RightFoot  12.0409 -0.0591234 0.938085
RightToes  -38.9513 -0.21016 -0.309122
Spine  10.8001 -0.459308 -1.43879
Spine1  21.1438 0.215497 -4.41211
HEad  20.7896 26.6203 -11.3127
LeftShoulder1  0 -2.42657e-020 -4.95415e-022
LeftArm  -41.3694 10.1916 -78.5006
LeftForeArm  59.7227 -14.1834 -2.50653
LeftHand  0.503895 -7.70137 -7.85276
RightShoulder  0 2.42657e-020 1.07489e-018
RightArm  -50.9447 -15.8398 80.5301
RightForeArm  3.93675 76.1011 45.5022
RightHand  4.12016 18.1624 25.7444
LeftUpLeg  -33.1827 10.2579 -11.2278
LeftLeg  42.1064 7.49623 5.90306
LeftFoot  -11.9964 -0.208476 -1.98394
LeftToes  15.1347 1.28829e-006 1.15665e-007
372
root  38.5138 31.3605 29.6055 -176.604 33.8869 -178.552
RightUpLeg  -22.6952 -8.10418 0.90232
RightLeg  80.5297 0.244046 0.646974
RightFoot  8.96137 0.0138268 0.201087
RightToes  -35.957 -0.187018 -0.291163
Spine  10.5879 -0.664693 -1.4707
Spine1  20.7482 -0.230474 -4.48386
HEad  23.3856 27.7889 -11.8651
LeftShoulder1  0 -2.42657e-020 -4.95415e-022
LeftArm  -43.4339 10.5011 -79.2211
LeftForeArm  62.0599 -13.6992 -2.41094
LeftHand  0.564632 -8.05616 -8.38229
RightShoulder  0 2.42657e-020 1.07489e-018
RightArm  -52.9415 -16.5105 78.344
RightForeArm  21.1295 78.3773 59.3096
RightHand  3.96897 18.282 24.6832
LeftUpLeg  -29.2972 10.571 -10.473
LeftLeg  45.1429 6.93246 6.08075
LeftFoot  -15.8644 -0.353347 -2.53557
LeftToes  13.5139 1.28829e-006 1.15665e-007
373
root  39.3845 31.3348 28.2489 -178.849 32.386 -179.06
RightUpLeg  -25.001 -7.98598 -0.613707
RightLeg  83.4897 -0.117181 -1.19905
RightFoot  7.15983 0.0261134 -0.0398403
RightToes  -32.1312 -0.158868 -0.266502
Spine  10.2868 -1.13535 -1.68088
Spine1  20.1417 -1.13912 -5.03591
HEad  25.8966 29.1085 -11.6597
LeftShoulder1  0 -2.42657e-020 -4.95415e-022
LeftArm  -44.3489 11.1524 -79.7231
LeftForeArm  62.064 -14.369 -2.53601
LeftHand  0.526569 -7.95032 -7.94338
RightShoulder  0 2.42657e-020 1.07489e-018
RightArm  -54.0465 -16.2402 76.9086
RightForeArm  38.0606 79.4839 72.6592
RightHand  3.75469 18.5645 23.0581
LeftUpLeg  -24.5397 8.9674 -10.1069
LeftLeg  45.5316 7.22509 6.42073
LeftFoot  -18.4775 -0.503016 -3.09174
LeftToes  14.3057 1.28829e-006 1.15665e-007
374
root  40.2458 31.4957 26.9871 179.888 30.7523 -178.842
RightUpLeg  -26.8731 -7.40633 -1.40721
RightLeg  81.8049 -0.225131 -1.52241
RightFoot  6.47071 0.0256116 -0.0755214
RightToes  -32.6946 -0.16291 -0.270251
Spine  9.92146 -1.43589 -1.6676
Spine1  19.4094 -1.78026 -5.09808
HEad  28.4089 29.7336 -10.9555
LeftShoulder1  0 -2.42657e-020 -4.95415e-022
LeftArm  -43.9255 11.3357 -80.511
LeftForeArm  60.5674 -15.3113 -2.71673
LeftHand  0.425969 -7.70604 -6.69432
RightShoulder  0 2.42657e-020 1.07489e-018
RightArm  -55.4882 -15.476 76.6647
RightForeArm  57.0936 79.9251 87.5965
RightHand  3.63319 18.7593 22.1149
LeftUpLeg  -19.7564 7.06801 -9.3249
LeftLeg  44.4414 7.8019 6.66763
LeftFoot  -19.9256 -0.624437 -3.55375
LeftToes  13.8905 1.28829e-006 1.15665e-007
375
root  41.1158 31.7957 25.8043 179.022 29.0106 -178.012
RightUpLeg  -27.6339 -6.4506 -1.5333
RightLeg  76.0181 -0.447992 -1.67149
RightFoot  3.99794 0.0147688 -0.0455819
RightToes  -31.994 -0.163075 -0.27041
Spine  9.67732 -1.60348 -1.37323
Spine1  18.9059 -2.17896 -4.64523
HEad  30.737 30.1127 -10.399
LeftShoulder1  0 -2.42657e-020 -4.95415e-022
LeftArm  -42.4376 10.9686 -81.6872
LeftForeArm  57.6907 -16.6994 -2.98734
LeftHand  0.353055 -7.26794 -5.93031
RightShoulder  0 2.42657e-020 1.07489e-018
RightArm  -55.8354 -14.5829 76.884
RightForeArm  80.2011 79.509 106.126
RightHand  3.37917 19.5338 19.824
LeftUpLeg  -14.5595 6.17214 -7.78885
LeftLeg  41.9483 7.37316 5.77462
LeftFoot  -20.3649 -0.598398 -3.33071
LeftToes  12.0395 1.28829e-006 1.15665e-007
376
root  41.9325 32.1298 24.7477 179.387 26.7784 -177.112
RightUpLeg  -28.5023 -5.5341 -1.43021
RightLeg  67.0482 -1.77331 -3.66776
RightFoot  2.09574 0.00871259 -0.0987517
RightToes  -32.4135 -0.161494 -0.268949
Spine  9.1442 -1.89622 -1.01161
Spine1  17.8327 -2.84527 -4.07148
HEad  32.2578 30.6895 -9.9756
LeftShoulder1  0 -2.42657e-020 -4.95415e-022
LeftArm  -40.7829 10.8236 -82.9318
LeftForeArm  53.7966 -18.5632 -3.35666
LeftHand  0.353056 -7.25189 -5.94265
RightShoulder  0 2.42657e-020 1.07489e-018
RightArm  -54.4669 -14.0891 77.4879
RightForeArm  105.142 77.7005 125.113
RightHand  2.92309 20.4138 16.5058
LeftUpLeg  -10.5826 5.40377 -6.15111
LeftLeg  38.6647 6.47157 4.50456
LeftFoot  -20.2661 -0.502465 -2.81089
LeftToes  11.1168 1.28829e-006 1.15665e-007
377
root  42.708 32.4426 23.7558 -179.675 24.1005 -176.444
RightUpLeg  -28.6096 -4.2663 -1.80193
RightLeg  55.1869 -4.31847 -5.47053
RightFoot  1.35707 0.00609384 -0.136918
RightToes  -32.1955 -0.159328 -0.266932
Spine  8.46607 -2.2185 -0.708896
Spine1  16.4782 -3.55723 -3.60123
HEad  33.2681 31.0654 -9.27621
LeftShoulder1  0 -2.42657e-020 -4.95415e-022
LeftArm  -38.2678 10.8158 -83.9772
LeftForeArm  50.3914 -20.4876 -3.74497
LeftHand  0.339072 -7.33554 -5.66109
RightShoulder  0 2.42657e-020 1.07489e-018
RightArm  -51.429 -13.9421 78.5261
RightForeArm  128.114 74.4012 140.15
RightHand  2.45705 21.506 13.2592
LeftUpLeg  -7.40928 3.94908 -4.72584
LeftLeg  35.0628 5.55572 3.37501
LeftFoot  -19.6026 -0.391806 -2.26773
LeftToes  9.51603 1.28829e-006 1.15665e-007
378
root  43.4816 32.66 22.872 -178.507 21.7341 -176.078
RightUpLeg  -27.8721 -0.909331 -2.9299
RightLeg  40.966 -7.19928 -5.47137
RightFoot  1.64865 0.00901872 -0.249152
RightToes  -31.7816 -0.156379 -0.264155
Spine  7.76437 -2.26902 -0.533385
Spine1  15.0623 -3.69903 -3.3115
HEad  33.8146 31.0003 -8.636
LeftShoulder1  0 -2.42657e-020 -4.95415e-022
LeftArm  -35.4205 10.8739 -84.8635
LeftForeArm  48.7973 -22.9777 -4.25729
LeftHand  0.294955 -7.37938 -4.94609
RightShoulder  0 2.42657e-020 1.07489e-018
RightArm  -45.7956 -13.9822 79.304
RightForeArm  145.199 70.9798 148.645
RightHand  1.63323 23.555 8.19369
LeftUpLeg  -5.08134 2.83508 -3.41074
LeftLeg  31.8718 4.4955 2.4016
LeftFoot  -18.8858 -0.289101 -1.73812
LeftToes  7.53564 1.28829e-006 1.15665e-007
379
root  44.1873 32.7275 21.9199 -177.19 18.2969 -176.099
RightUpLeg  -26.5228 3.52824 -5.75912
RightLeg  26.2804 -7.52465 -3.12318
RightFoot  2.12875 0.012581 -0.299509
RightToes  -30.1804 -0.145165 -0.253218
Spine  7.08012 -2.5865 -0.411072
Spine1  13.6794 -4.38393 -3.08902
HEad  33.9041 30.8484 -8.24088
LeftShoulder1  0 -2.42657e-020 -4.95415e-022
LeftArm  -33.2145 11.1229 -85.8473
LeftForeArm  47.921 -25.552 -4.80658
LeftHand  0.284168 -7.47041 -4.72503
RightShoulder  0 2.42657e-020 1.07489e-018
RightArm  -37.4593 -13.9528 79.4332
RightForeArm  158.717 68.8936 152.262
RightHand  0.617672 25.1478 3.1395
LeftUpLeg  -3.59738 -0.339509 -2.83924
LeftLeg  29.6317 4.35253 2.11152
LeftFoot  -18.6966 -0.268916 -1.63343
LeftToes  6.16268 1.28829e-006 1.15665e-007
380
root  44.9297 32.6287 21.0273 -176.319 15.4415 -176.157
RightUpLeg  -26.1383 11.6213 -9.95046
RightLeg  15.6926 -6.09095 -1.29168
RightFoot  1.99023 0.0102164 -0.21054
RightToes  -29.137 -0.138023 -0.245923
Spine  6.77184 -2.48142 -0.361545
Spine1  13.009 -4.21656 -2.95361
HEad  33.3969 30.0094 -8.1659
LeftShoulder1  0 -2.42657e-020 -4.95415e-022
LeftArm  -30.8312 9.95819 -86.5756
LeftForeArm  46.4808 -26.4717 -5.01051
LeftHand  0.296348 -7.45979 -4.91797
RightShoulder  0 2.42657e-020 1.07489e-018
RightArm  -27.2727 -12.3546 79.074
RightForeArm  167.017 70.2831 149.945
RightHand  -1.03223 26.3309 -4.04178
LeftUpLeg  -2.57276 -2.86987 -2.11007
LeftLeg  29.0142 4.20371 1.98385
LeftFoot  -19.2873 -0.273007 -1.60658
LeftToes  4.63899 1.28829e-006 1.15665e-007
381
root  45.7264 32.3357 20.1479 -175.997 12.6427 -176.172
RightUpLeg  -27.4483 17.4924 -13.3128
RightLeg  12.1571 -2.67955 -0.397676
RightFoot  2.7251 0.0114867 -0.10535
RightToes  -35.1541 -0.180975 -0.286145
Spine  6.67762 -2.19541 -0.32797
Spine1  12.7467 -3.69064 -2.83853
HEad  33.5999 28.8401 -7.97344
LeftShoulder1  0 -2.42657e-020 -4.95415e-022
LeftArm  -28.1898 8.57491 -87.1462
LeftForeArm  45.8152 -26.5387 -5.02638
LeftHand  0.310425 -7.37272 -5.19016
RightShoulder  0 2.42657e-020 1.07489e-018
RightArm  -17.4626 -9.25393 78.5741
RightForeArm  161.37 75.8439 134.839
RightHand  -2.83743 27.719 -11.0967
LeftUpLeg  -2.13139 -5.2377 -1.21193
LeftLeg  30.6415 4.03384 2.04541
LeftFoot  -21.0579 -0.31292 -1.6835
LeftToes  3.10456 1.28829e-006 1.15665e-007
